<?xml version="1.0" encoding="UTF-8"?>
<svg id="Layer_1" xmlns="http://www.w3.org/2000/svg" viewBox="0 0 126.47 96.498">
  <defs>
    <style>
      .cls-1 {
        fill: #fff;
      }

      .cls-2 {
        fill: none;
        stroke: #fff;
        stroke-miterlimit: 10;
      }

      .cls-3 {
        fill: #d7a54c;
      }
    </style>
  </defs>
  <g>
    <path class="cls-3" d="M87.636,49.106l-2.23-1.055c-.084-.039-9.25-4.181-21.125.083l-.754.271-.754-.271c-11.969-4.298-21.034-.125-21.124-.083l-2.23,1.055-9.818-27.67,2.658-.414c.26-.041,6.457-.967,13.566,1.348,5.935,1.933,13.519,6.514,17.703,17.327,4.184-10.813,11.768-15.394,17.704-17.327,7.109-2.315,13.306-1.388,13.566-1.348l2.658.414-9.818,27.67ZM35.685,25.247l6.357,17.916c3.27-1.02,9.753-2.361,17.809-.524-5.346-15.741-18.409-17.442-24.166-17.392ZM75.228,41.727c4.289,0,7.693.783,9.784,1.436l6.357-17.917c-5.749-.058-18.819,1.647-24.166,17.392,2.905-.662,5.606-.911,8.025-.911Z"/>
    <path class="cls-3" d="M74.154,23.835s-5.52,3.15-10.63-6.67c-5.11,9.82-10.63,6.67-10.63,6.67l10.63-14.24,10.63,14.24Z"/>
    <circle class="cls-3" cx="63.672" cy="3.644" r="3.644"/>
    <circle class="cls-3" cx="31.271" cy="15.832" r="3.644"/>
    <circle class="cls-3" cx="96.356" cy="15.832" r="3.644"/>
  </g>
  <g>
    <g>
      <path class="cls-1" d="M5.946,64.494H0v-2.146h14.475v2.146h-5.976v17.404h-2.553v-17.404Z"/>
      <path class="cls-1" d="M20.331,62.348v8.18h9.456v-8.18h2.553v19.551h-2.553v-9.166h-9.456v9.166h-2.524v-19.551h2.524Z"/>
      <path class="cls-1" d="M47.998,72.733h-7.6v7.049h8.47v2.117h-10.994v-19.551h10.559v2.117h-8.034v6.179h7.6v2.089Z"/>
      <path class="cls-1" d="M60.609,81.899v-19.551h2.756l6.265,9.892c1.45,2.291,2.582,4.351,3.51,6.353l.059-.029c-.232-2.61-.29-4.989-.29-8.035v-8.18h2.378v19.551h-2.553l-6.207-9.92c-1.363-2.176-2.668-4.409-3.655-6.527l-.087.029c.146,2.466.203,4.815.203,8.063v8.354h-2.379Z"/>
      <path class="cls-1" d="M90.975,72.733h-7.6v7.049h8.47v2.117h-10.994v-19.551h10.559v2.117h-8.034v6.179h7.6v2.089Z"/>
      <path class="cls-1" d="M106.982,81.899l-2.495-4.322c-1.015-1.653-1.653-2.727-2.262-3.857h-.059c-.551,1.131-1.103,2.175-2.117,3.887l-2.35,4.293h-2.9l5.975-9.892-5.743-9.659h2.93l2.582,4.583c.725,1.276,1.276,2.263,1.798,3.307h.088c.551-1.16,1.044-2.06,1.769-3.307l2.669-4.583h2.9l-5.946,9.515,6.092,10.036h-2.93Z"/>
      <path class="cls-1" d="M117.942,64.494h-5.946v-2.146h14.475v2.146h-5.976v17.404h-2.553v-17.404Z"/>
    </g>
    <g>
      <g>
        <path class="cls-1" d="M33.562,96.097c-.401.201-1.204.401-2.233.401-2.383,0-4.177-1.505-4.177-4.276,0-2.646,1.794-4.44,4.415-4.44,1.054,0,1.719.226,2.007.376l-.263.891c-.414-.2-1.004-.351-1.706-.351-1.981,0-3.299,1.267-3.299,3.486,0,2.069,1.191,3.399,3.249,3.399.664,0,1.342-.138,1.78-.352l.227.865Z"/>
        <path class="cls-1" d="M40.038,87.919v3.537h4.089v-3.537h1.104v8.454h-1.104v-3.964h-4.089v3.964h-1.092v-8.454h1.092Z"/>
        <path class="cls-1" d="M52.51,93.714l-.878,2.659h-1.129l2.872-8.454h1.317l2.885,8.454h-1.167l-.902-2.659h-2.998ZM55.282,92.862l-.828-2.434c-.188-.552-.313-1.054-.439-1.543h-.024c-.126.502-.264,1.017-.427,1.53l-.828,2.446h2.547Z"/>
        <path class="cls-1" d="M62.838,88.02c.527-.088,1.217-.163,2.094-.163,1.079,0,1.869.251,2.37.702.465.401.74,1.017.74,1.769,0,.766-.226,1.367-.652,1.807-.576.614-1.518.928-2.583.928-.326,0-.628-.013-.878-.075v3.387h-1.092v-8.354ZM63.93,92.096c.238.063.539.088.902.088,1.317,0,2.12-.64,2.12-1.806,0-1.116-.79-1.656-1.994-1.656-.476,0-.84.038-1.028.088v3.286Z"/>
        <path class="cls-1" d="M75.133,88.848h-2.571v-.929h6.259v.929h-2.584v7.525h-1.104v-7.525Z"/>
        <path class="cls-1" d="M88.158,92.41h-3.286v3.048h3.662v.916h-4.754v-8.454h4.565v.916h-3.474v2.672h3.286v.902Z"/>
        <path class="cls-1" d="M93.968,88.033c.552-.113,1.342-.176,2.095-.176,1.167,0,1.919.213,2.446.689.426.377.664.954.664,1.605,0,1.117-.702,1.856-1.593,2.158v.037c.652.226,1.041.828,1.242,1.706.275,1.179.477,1.994.652,2.32h-1.129c-.139-.238-.326-.966-.564-2.02-.251-1.166-.703-1.605-1.693-1.643h-1.028v3.662h-1.092v-8.341ZM95.06,91.883h1.116c1.166,0,1.906-.64,1.906-1.605,0-1.091-.79-1.568-1.944-1.58-.526,0-.903.05-1.078.1v3.086Z"/>
      </g>
      <g>
        <line class="cls-2" x1="15.804" y1="91.941" x2=".163" y2="91.941"/>
        <line class="cls-2" x1="126.303" y1="91.941" x2="110.662" y2="91.941"/>
      </g>
    </g>
  </g>
</svg>