<svg viewBox="48.2688 119.11680000000001 182.592 36.288" version="1.1" xmlns="http://www.w3.org/2000/svg" style="max-height: 500px" width="182.592" height="36.288">
  <defs>
    <style>
      .cls-1 {
        fill: #ffc100;
      }
    </style>
  </defs>
  
  <g>
    <g id="Layer_1">
      <g>
        <polygon points="75.19 150.76 65.66 143.89 56.02 150.6 59.61 139.42 50.25 132.33 61.99 132.29 65.84 121.19 69.51 132.35 81.26 132.58 71.77 139.52 75.19 150.76" class="cls-1"/>
        <polygon points="112.42 150.76 102.9 143.89 93.26 150.6 96.85 139.42 87.49 132.33 99.23 132.29 103.08 121.19 106.75 132.35 118.49 132.58 109.02 139.52 112.42 150.76" class="cls-1"/>
        <polygon points="149.67 150.76 140.14 143.89 130.5 150.6 134.1 139.42 124.73 132.33 136.48 132.29 140.33 121.19 143.99 132.35 155.74 132.58 146.26 139.52 149.67 150.76" class="cls-1"/>
        <polygon points="186.91 150.76 177.39 143.89 167.75 150.6 171.34 139.42 161.97 132.33 173.72 132.29 177.57 121.19 181.24 132.35 192.98 132.58 183.5 139.52 186.91 150.76" class="cls-1"/>
        <polygon points="222.94 150.76 213.41 143.89 203.78 150.6 207.36 139.42 198 132.33 209.74 132.29 213.59 121.19 217.27 132.35 229.01 132.58 219.53 139.52 222.94 150.76" class="cls-1"/>
      </g>
    </g>
  </g>
</svg>